<svg xmlns="http://www.w3.org/2000/svg" width="430" height="430" fill="none" viewBox="0 0 430 430"><path fill="url(#XY-0wQZG_4a)" d="M61.6 274.4c1.3 3-.1 6.6-3.2 7.9-.8.3-1.6.5-2.4.5-2.3 0-4.5-1.4-5.5-3.6-.5-1.2-12.2-28.8-11.6-67.5.6-35.5 12.1-87 63.7-132H64.5c-3.3 0-6-2.7-6-6s2.7-6 6-6h51.8c3.3 0 6 2.7 6 6v51.8c0 3.3-2.7 6-6 6s-6-2.7-6-6V88.8C71.9 122.4 51.9 163.6 51 211.3c-.7 36.2 10.5 62.8 10.6 63.1m302.1-158.1V64.5c0-3.3-2.7-6-6-6s-6 2.7-6 6v38.2c-45-51.5-96.6-63.1-132-63.7-38.7-.6-66.3 11.1-67.5 11.6-3 1.3-4.4 4.8-3.1 7.9s4.8 4.5 7.9 3.1c.3-.1 26.4-11.2 62.6-10.6 47.8.8 89.2 20.7 123 59.3H306c-3.3 0-6 2.7-6 6s2.7 6 6 6h51.8c3.2 0 5.9-2.7 5.9-6m27.3 99.8c.6-38.6-11.1-66.3-11.6-67.5-1.3-3-4.8-4.4-7.9-3.1s-4.5 4.8-3.1 7.9c.1.3 11.2 26.5 10.6 62.6-.8 47.9-20.8 89.3-59.5 123.1v-36.7c0-3.3-2.7-6-6-6s-6 2.7-6 6v51.8c0 3.3 2.7 6 6 6h51.8c3.3 0 6-2.7 6-6s-2.7-6-6-6h-38.1c51.7-45 63.2-96.6 63.8-132.1m-116.6 152c-.3.1-26.9 11.3-63.1 10.6-47.7-.9-88.9-20.9-122.5-59.4h36.6c3.3 0 6-2.7 6-6s-2.7-6-6-6H73.5c-3.3 0-6 2.7-6 6v51.8c0 3.3 2.7 6 6 6s6-2.7 6-6V327c45 51.5 96.6 63.1 132.1 63.6h3c37.1 0 63.4-11.1 64.5-11.6 3-1.3 4.5-4.8 3.1-7.9-1.3-2.9-4.8-4.3-7.8-3"/><defs><linearGradient id="XY-0wQZG_4a" x1="65.185" x2="364.452" y1="64.3993" y2="363.667" gradientUnits="userSpaceOnUse"><stop/><stop offset="1" stop-color="#f0b100"/></linearGradient></defs></svg>